<?xml version="1.0" encoding="UTF-8" standalone="no"?>
<!DOCTYPE svg PUBLIC "-//W3C//DTD SVG 1.1//EN"
 "http://www.w3.org/Graphics/SVG/1.1/DTD/svg11.dtd">
<!-- Generated by graphviz version 2.40.1 (20161225.0304)
 -->
<!-- Title: Tree Pages: 1 -->
<svg width="541pt" height="789pt"
 viewBox="0.00 0.00 541.00 789.00" xmlns="http://www.w3.org/2000/svg" xmlns:xlink="http://www.w3.org/1999/xlink">
<g id="graph0" class="graph" transform="scale(1 1) rotate(0) translate(4 785)">
<title>Tree</title>
<polygon fill="#ffffff" stroke="transparent" points="-4,4 -4,-785 537,-785 537,4 -4,4"/>
<!-- 0 -->
<g id="node1" class="node">
<title>0</title>
<polygon fill="none" stroke="#000000" points="406.5,-781 266.5,-781 266.5,-713 406.5,-713 406.5,-781"/>
<text text-anchor="middle" x="336.5" y="-765.8" font-family="Helvetica,sans-Serif" font-size="14.00" fill="#000000">X[7] &lt;= 1.9</text>
<text text-anchor="middle" x="336.5" y="-750.8" font-family="Helvetica,sans-Serif" font-size="14.00" fill="#000000">gini = 0.664</text>
<text text-anchor="middle" x="336.5" y="-735.8" font-family="Helvetica,sans-Serif" font-size="14.00" fill="#000000">samples = 105</text>
<text text-anchor="middle" x="336.5" y="-720.8" font-family="Helvetica,sans-Serif" font-size="14.00" fill="#000000">value = [31, 37, 37]</text>
</g>
<!-- 1 -->
<g id="node2" class="node">
<title>1</title>
<polygon fill="none" stroke="#000000" points="330,-677 199,-677 199,-609 330,-609 330,-677"/>
<text text-anchor="middle" x="264.5" y="-661.8" font-family="Helvetica,sans-Serif" font-size="14.00" fill="#000000">X[2] &lt;= 4.75</text>
<text text-anchor="middle" x="264.5" y="-646.8" font-family="Helvetica,sans-Serif" font-size="14.00" fill="#000000">gini = 0.5</text>
<text text-anchor="middle" x="264.5" y="-631.8" font-family="Helvetica,sans-Serif" font-size="14.00" fill="#000000">samples = 74</text>
<text text-anchor="middle" x="264.5" y="-616.8" font-family="Helvetica,sans-Serif" font-size="14.00" fill="#000000">value = [0, 37, 37]</text>
</g>
<!-- 0&#45;&gt;1 -->
<g id="edge1" class="edge">
<title>0&#45;&gt;1</title>
<path fill="none" stroke="#000000" d="M312.9245,-712.9465C306.8329,-704.1475 300.2004,-694.5672 293.8534,-685.3993"/>
<polygon fill="#000000" stroke="#000000" points="296.6983,-683.3597 288.1285,-677.13 290.9429,-687.3442 296.6983,-683.3597"/>
<text text-anchor="middle" x="283.6563" y="-698.0267" font-family="Helvetica,sans-Serif" font-size="14.00" fill="#000000">True</text>
</g>
<!-- 16 -->
<g id="node17" class="node">
<title>16</title>
<polygon fill="none" stroke="#000000" points="471,-669.5 348,-669.5 348,-616.5 471,-616.5 471,-669.5"/>
<text text-anchor="middle" x="409.5" y="-654.3" font-family="Helvetica,sans-Serif" font-size="14.00" fill="#000000">gini = 0.0</text>
<text text-anchor="middle" x="409.5" y="-639.3" font-family="Helvetica,sans-Serif" font-size="14.00" fill="#000000">samples = 31</text>
<text text-anchor="middle" x="409.5" y="-624.3" font-family="Helvetica,sans-Serif" font-size="14.00" fill="#000000">value = [31, 0, 0]</text>
</g>
<!-- 0&#45;&gt;16 -->
<g id="edge16" class="edge">
<title>0&#45;&gt;16</title>
<path fill="none" stroke="#000000" d="M360.4029,-712.9465C368.2892,-701.7113 377.0697,-689.2021 384.9998,-677.9043"/>
<polygon fill="#000000" stroke="#000000" points="387.9889,-679.7379 390.8694,-669.5422 382.2595,-675.7163 387.9889,-679.7379"/>
<text text-anchor="middle" x="395.1823" y="-690.4673" font-family="Helvetica,sans-Serif" font-size="14.00" fill="#000000">False</text>
</g>
<!-- 2 -->
<g id="node3" class="node">
<title>2</title>
<polygon fill="none" stroke="#000000" points="256,-573 133,-573 133,-505 256,-505 256,-573"/>
<text text-anchor="middle" x="194.5" y="-557.8" font-family="Helvetica,sans-Serif" font-size="14.00" fill="#000000">X[7] &lt;= 0.9</text>
<text text-anchor="middle" x="194.5" y="-542.8" font-family="Helvetica,sans-Serif" font-size="14.00" fill="#000000">gini = 0.059</text>
<text text-anchor="middle" x="194.5" y="-527.8" font-family="Helvetica,sans-Serif" font-size="14.00" fill="#000000">samples = 33</text>
<text text-anchor="middle" x="194.5" y="-512.8" font-family="Helvetica,sans-Serif" font-size="14.00" fill="#000000">value = [0, 32, 1]</text>
</g>
<!-- 1&#45;&gt;2 -->
<g id="edge2" class="edge">
<title>1&#45;&gt;2</title>
<path fill="none" stroke="#000000" d="M241.5794,-608.9465C235.7174,-600.2373 229.3402,-590.7626 223.227,-581.6801"/>
<polygon fill="#000000" stroke="#000000" points="225.9595,-579.4716 217.4721,-573.13 220.1524,-583.3802 225.9595,-579.4716"/>
</g>
<!-- 5 -->
<g id="node6" class="node">
<title>5</title>
<polygon fill="none" stroke="#000000" points="397,-573 274,-573 274,-505 397,-505 397,-573"/>
<text text-anchor="middle" x="335.5" y="-557.8" font-family="Helvetica,sans-Serif" font-size="14.00" fill="#000000">X[8] &lt;= 1.65</text>
<text text-anchor="middle" x="335.5" y="-542.8" font-family="Helvetica,sans-Serif" font-size="14.00" fill="#000000">gini = 0.214</text>
<text text-anchor="middle" x="335.5" y="-527.8" font-family="Helvetica,sans-Serif" font-size="14.00" fill="#000000">samples = 41</text>
<text text-anchor="middle" x="335.5" y="-512.8" font-family="Helvetica,sans-Serif" font-size="14.00" fill="#000000">value = [0, 5, 36]</text>
</g>
<!-- 1&#45;&gt;5 -->
<g id="edge5" class="edge">
<title>1&#45;&gt;5</title>
<path fill="none" stroke="#000000" d="M287.7481,-608.9465C293.755,-600.1475 300.2955,-590.5672 306.5543,-581.3993"/>
<polygon fill="#000000" stroke="#000000" points="309.452,-583.3623 312.1997,-573.13 303.6707,-579.4155 309.452,-583.3623"/>
</g>
<!-- 3 -->
<g id="node4" class="node">
<title>3</title>
<polygon fill="none" stroke="#000000" points="115,-461.5 0,-461.5 0,-408.5 115,-408.5 115,-461.5"/>
<text text-anchor="middle" x="57.5" y="-446.3" font-family="Helvetica,sans-Serif" font-size="14.00" fill="#000000">gini = 0.0</text>
<text text-anchor="middle" x="57.5" y="-431.3" font-family="Helvetica,sans-Serif" font-size="14.00" fill="#000000">samples = 1</text>
<text text-anchor="middle" x="57.5" y="-416.3" font-family="Helvetica,sans-Serif" font-size="14.00" fill="#000000">value = [0, 0, 1]</text>
</g>
<!-- 2&#45;&gt;3 -->
<g id="edge3" class="edge">
<title>2&#45;&gt;3</title>
<path fill="none" stroke="#000000" d="M149.6411,-504.9465C133.8252,-492.9403 116.0927,-479.4791 100.4393,-467.5962"/>
<polygon fill="#000000" stroke="#000000" points="102.5455,-464.8009 92.4642,-461.5422 98.3129,-470.3764 102.5455,-464.8009"/>
</g>
<!-- 4 -->
<g id="node5" class="node">
<title>4</title>
<polygon fill="none" stroke="#000000" points="256,-461.5 133,-461.5 133,-408.5 256,-408.5 256,-461.5"/>
<text text-anchor="middle" x="194.5" y="-446.3" font-family="Helvetica,sans-Serif" font-size="14.00" fill="#000000">gini = 0.0</text>
<text text-anchor="middle" x="194.5" y="-431.3" font-family="Helvetica,sans-Serif" font-size="14.00" fill="#000000">samples = 32</text>
<text text-anchor="middle" x="194.5" y="-416.3" font-family="Helvetica,sans-Serif" font-size="14.00" fill="#000000">value = [0, 32, 0]</text>
</g>
<!-- 2&#45;&gt;4 -->
<g id="edge4" class="edge">
<title>2&#45;&gt;4</title>
<path fill="none" stroke="#000000" d="M194.5,-504.9465C194.5,-494.2621 194.5,-482.4254 194.5,-471.5742"/>
<polygon fill="#000000" stroke="#000000" points="198.0001,-471.5421 194.5,-461.5422 191.0001,-471.5422 198.0001,-471.5421"/>
</g>
<!-- 6 -->
<g id="node7" class="node">
<title>6</title>
<polygon fill="none" stroke="#000000" points="397,-469 274,-469 274,-401 397,-401 397,-469"/>
<text text-anchor="middle" x="335.5" y="-453.8" font-family="Helvetica,sans-Serif" font-size="14.00" fill="#000000">X[4] &lt;= 2.75</text>
<text text-anchor="middle" x="335.5" y="-438.8" font-family="Helvetica,sans-Serif" font-size="14.00" fill="#000000">gini = 0.142</text>
<text text-anchor="middle" x="335.5" y="-423.8" font-family="Helvetica,sans-Serif" font-size="14.00" fill="#000000">samples = 39</text>
<text text-anchor="middle" x="335.5" y="-408.8" font-family="Helvetica,sans-Serif" font-size="14.00" fill="#000000">value = [0, 3, 36]</text>
</g>
<!-- 5&#45;&gt;6 -->
<g id="edge6" class="edge">
<title>5&#45;&gt;6</title>
<path fill="none" stroke="#000000" d="M335.5,-504.9465C335.5,-496.776 335.5,-487.9318 335.5,-479.3697"/>
<polygon fill="#000000" stroke="#000000" points="339.0001,-479.13 335.5,-469.13 332.0001,-479.13 339.0001,-479.13"/>
</g>
<!-- 15 -->
<g id="node16" class="node">
<title>15</title>
<polygon fill="none" stroke="#000000" points="530,-461.5 415,-461.5 415,-408.5 530,-408.5 530,-461.5"/>
<text text-anchor="middle" x="472.5" y="-446.3" font-family="Helvetica,sans-Serif" font-size="14.00" fill="#000000">gini = 0.0</text>
<text text-anchor="middle" x="472.5" y="-431.3" font-family="Helvetica,sans-Serif" font-size="14.00" fill="#000000">samples = 2</text>
<text text-anchor="middle" x="472.5" y="-416.3" font-family="Helvetica,sans-Serif" font-size="14.00" fill="#000000">value = [0, 2, 0]</text>
</g>
<!-- 5&#45;&gt;15 -->
<g id="edge15" class="edge">
<title>5&#45;&gt;15</title>
<path fill="none" stroke="#000000" d="M380.3589,-504.9465C396.1748,-492.9403 413.9073,-479.4791 429.5607,-467.5962"/>
<polygon fill="#000000" stroke="#000000" points="431.6871,-470.3764 437.5358,-461.5422 427.4545,-464.8009 431.6871,-470.3764"/>
</g>
<!-- 7 -->
<g id="node8" class="node">
<title>7</title>
<polygon fill="none" stroke="#000000" points="324,-357.5 209,-357.5 209,-304.5 324,-304.5 324,-357.5"/>
<text text-anchor="middle" x="266.5" y="-342.3" font-family="Helvetica,sans-Serif" font-size="14.00" fill="#000000">gini = 0.0</text>
<text text-anchor="middle" x="266.5" y="-327.3" font-family="Helvetica,sans-Serif" font-size="14.00" fill="#000000">samples = 1</text>
<text text-anchor="middle" x="266.5" y="-312.3" font-family="Helvetica,sans-Serif" font-size="14.00" fill="#000000">value = [0, 1, 0]</text>
</g>
<!-- 6&#45;&gt;7 -->
<g id="edge7" class="edge">
<title>6&#45;&gt;7</title>
<path fill="none" stroke="#000000" d="M312.9068,-400.9465C305.4527,-389.7113 297.1533,-377.2021 289.6577,-365.9043"/>
<polygon fill="#000000" stroke="#000000" points="292.5547,-363.94 284.1097,-357.5422 286.7218,-367.81 292.5547,-363.94"/>
</g>
<!-- 8 -->
<g id="node9" class="node">
<title>8</title>
<polygon fill="none" stroke="#000000" points="465,-365 342,-365 342,-297 465,-297 465,-365"/>
<text text-anchor="middle" x="403.5" y="-349.8" font-family="Helvetica,sans-Serif" font-size="14.00" fill="#000000">X[3] &lt;= 1.7</text>
<text text-anchor="middle" x="403.5" y="-334.8" font-family="Helvetica,sans-Serif" font-size="14.00" fill="#000000">gini = 0.1</text>
<text text-anchor="middle" x="403.5" y="-319.8" font-family="Helvetica,sans-Serif" font-size="14.00" fill="#000000">samples = 38</text>
<text text-anchor="middle" x="403.5" y="-304.8" font-family="Helvetica,sans-Serif" font-size="14.00" fill="#000000">value = [0, 2, 36]</text>
</g>
<!-- 6&#45;&gt;8 -->
<g id="edge8" class="edge">
<title>6&#45;&gt;8</title>
<path fill="none" stroke="#000000" d="M357.7657,-400.9465C363.4602,-392.2373 369.6552,-382.7626 375.5938,-373.6801"/>
<polygon fill="#000000" stroke="#000000" points="378.6411,-375.4151 381.1842,-365.13 372.7823,-371.5843 378.6411,-375.4151"/>
</g>
<!-- 9 -->
<g id="node10" class="node">
<title>9</title>
<polygon fill="none" stroke="#000000" points="392,-261 277,-261 277,-193 392,-193 392,-261"/>
<text text-anchor="middle" x="334.5" y="-245.8" font-family="Helvetica,sans-Serif" font-size="14.00" fill="#000000">X[7] &lt;= 1.15</text>
<text text-anchor="middle" x="334.5" y="-230.8" font-family="Helvetica,sans-Serif" font-size="14.00" fill="#000000">gini = 0.444</text>
<text text-anchor="middle" x="334.5" y="-215.8" font-family="Helvetica,sans-Serif" font-size="14.00" fill="#000000">samples = 6</text>
<text text-anchor="middle" x="334.5" y="-200.8" font-family="Helvetica,sans-Serif" font-size="14.00" fill="#000000">value = [0, 2, 4]</text>
</g>
<!-- 8&#45;&gt;9 -->
<g id="edge9" class="edge">
<title>8&#45;&gt;9</title>
<path fill="none" stroke="#000000" d="M380.9068,-296.9465C375.1286,-288.2373 368.8425,-278.7626 362.8166,-269.6801"/>
<polygon fill="#000000" stroke="#000000" points="365.589,-267.5278 357.1439,-261.13 359.756,-271.3978 365.589,-267.5278"/>
</g>
<!-- 14 -->
<g id="node15" class="node">
<title>14</title>
<polygon fill="none" stroke="#000000" points="533,-253.5 410,-253.5 410,-200.5 533,-200.5 533,-253.5"/>
<text text-anchor="middle" x="471.5" y="-238.3" font-family="Helvetica,sans-Serif" font-size="14.00" fill="#000000">gini = 0.0</text>
<text text-anchor="middle" x="471.5" y="-223.3" font-family="Helvetica,sans-Serif" font-size="14.00" fill="#000000">samples = 32</text>
<text text-anchor="middle" x="471.5" y="-208.3" font-family="Helvetica,sans-Serif" font-size="14.00" fill="#000000">value = [0, 0, 32]</text>
</g>
<!-- 8&#45;&gt;14 -->
<g id="edge14" class="edge">
<title>8&#45;&gt;14</title>
<path fill="none" stroke="#000000" d="M425.7657,-296.9465C433.0398,-285.8215 441.1306,-273.4473 448.4604,-262.237"/>
<polygon fill="#000000" stroke="#000000" points="451.6024,-263.8273 454.1455,-253.5422 445.7436,-259.9965 451.6024,-263.8273"/>
</g>
<!-- 10 -->
<g id="node11" class="node">
<title>10</title>
<polygon fill="none" stroke="#000000" points="326,-157 211,-157 211,-89 326,-89 326,-157"/>
<text text-anchor="middle" x="268.5" y="-141.8" font-family="Helvetica,sans-Serif" font-size="14.00" fill="#000000">X[9] &lt;= 0.85</text>
<text text-anchor="middle" x="268.5" y="-126.8" font-family="Helvetica,sans-Serif" font-size="14.00" fill="#000000">gini = 0.444</text>
<text text-anchor="middle" x="268.5" y="-111.8" font-family="Helvetica,sans-Serif" font-size="14.00" fill="#000000">samples = 3</text>
<text text-anchor="middle" x="268.5" y="-96.8" font-family="Helvetica,sans-Serif" font-size="14.00" fill="#000000">value = [0, 2, 1]</text>
</g>
<!-- 9&#45;&gt;10 -->
<g id="edge10" class="edge">
<title>9&#45;&gt;10</title>
<path fill="none" stroke="#000000" d="M312.8891,-192.9465C307.3622,-184.2373 301.3494,-174.7626 295.5854,-165.6801"/>
<polygon fill="#000000" stroke="#000000" points="298.4729,-163.6979 290.1594,-157.13 292.5626,-167.4487 298.4729,-163.6979"/>
</g>
<!-- 13 -->
<g id="node14" class="node">
<title>13</title>
<polygon fill="none" stroke="#000000" points="459,-149.5 344,-149.5 344,-96.5 459,-96.5 459,-149.5"/>
<text text-anchor="middle" x="401.5" y="-134.3" font-family="Helvetica,sans-Serif" font-size="14.00" fill="#000000">gini = 0.0</text>
<text text-anchor="middle" x="401.5" y="-119.3" font-family="Helvetica,sans-Serif" font-size="14.00" fill="#000000">samples = 3</text>
<text text-anchor="middle" x="401.5" y="-104.3" font-family="Helvetica,sans-Serif" font-size="14.00" fill="#000000">value = [0, 0, 3]</text>
</g>
<!-- 9&#45;&gt;13 -->
<g id="edge13" class="edge">
<title>9&#45;&gt;13</title>
<path fill="none" stroke="#000000" d="M356.4383,-192.9465C363.6054,-181.8215 371.5773,-169.4473 378.7993,-158.237"/>
<polygon fill="#000000" stroke="#000000" points="381.9272,-159.8442 384.4007,-149.5422 376.0426,-156.0532 381.9272,-159.8442"/>
</g>
<!-- 11 -->
<g id="node12" class="node">
<title>11</title>
<polygon fill="none" stroke="#000000" points="260,-53 145,-53 145,0 260,0 260,-53"/>
<text text-anchor="middle" x="202.5" y="-37.8" font-family="Helvetica,sans-Serif" font-size="14.00" fill="#000000">gini = 0.0</text>
<text text-anchor="middle" x="202.5" y="-22.8" font-family="Helvetica,sans-Serif" font-size="14.00" fill="#000000">samples = 1</text>
<text text-anchor="middle" x="202.5" y="-7.8" font-family="Helvetica,sans-Serif" font-size="14.00" fill="#000000">value = [0, 0, 1]</text>
</g>
<!-- 10&#45;&gt;11 -->
<g id="edge11" class="edge">
<title>10&#45;&gt;11</title>
<path fill="none" stroke="#000000" d="M245.2309,-88.9777C239.156,-80.0954 232.5979,-70.5067 226.4865,-61.5711"/>
<polygon fill="#000000" stroke="#000000" points="229.3286,-59.5267 220.7943,-53.2485 223.5507,-63.4785 229.3286,-59.5267"/>
</g>
<!-- 12 -->
<g id="node13" class="node">
<title>12</title>
<polygon fill="none" stroke="#000000" points="393,-53 278,-53 278,0 393,0 393,-53"/>
<text text-anchor="middle" x="335.5" y="-37.8" font-family="Helvetica,sans-Serif" font-size="14.00" fill="#000000">gini = 0.0</text>
<text text-anchor="middle" x="335.5" y="-22.8" font-family="Helvetica,sans-Serif" font-size="14.00" fill="#000000">samples = 2</text>
<text text-anchor="middle" x="335.5" y="-7.8" font-family="Helvetica,sans-Serif" font-size="14.00" fill="#000000">value = [0, 2, 0]</text>
</g>
<!-- 10&#45;&gt;12 -->
<g id="edge12" class="edge">
<title>10&#45;&gt;12</title>
<path fill="none" stroke="#000000" d="M292.1217,-88.9777C298.2887,-80.0954 304.9461,-70.5067 311.1501,-61.5711"/>
<polygon fill="#000000" stroke="#000000" points="314.1003,-63.4589 316.9285,-53.2485 308.3503,-59.4666 314.1003,-63.4589"/>
</g>
</g>
</svg>
